<?xml version="1.0" standalone="no"?>
<!DOCTYPE svg PUBLIC "-//W3C//DTD SVG 20010904//EN"
 "http://www.w3.org/TR/2001/REC-SVG-20010904/DTD/svg10.dtd">
<svg version="1.0" xmlns="http://www.w3.org/2000/svg"
 width="70.000000pt" height="70.000000pt" viewBox="0 0 70.000000 70.000000"
 preserveAspectRatio="xMidYMid meet">
<metadata>
Created by potrace 1.14, written by Peter Selinger 2001-2017
</metadata>
<g transform="translate(0.000000,70.000000) scale(0.100000,-0.100000)"
fill="#000000" stroke="none">
<path d="M360 571 c0 -4 -13 -7 -30 -6 -21 1 -30 -3 -31 -14 0 -14 -1 -14 -7
-1 -4 8 -13 16 -21 18 -12 3 -12 0 -1 -13 7 -8 10 -18 6 -22 -3 -3 -6 -1 -6 7
0 10 -4 10 -17 -1 -14 -12 -16 -12 -9 1 4 9 2 8 -7 -2 -8 -10 -17 -15 -20 -11
-4 3 -7 1 -7 -5 0 -7 -5 -12 -11 -12 -5 0 -7 6 -3 13 4 7 3 9 -2 4 -9 -8 -10
-12 -13 -38 0 -6 -10 -9 -20 -6 -14 3 -18 1 -14 -9 3 -8 0 -14 -6 -14 -6 0
-11 -6 -11 -14 0 -7 -8 -20 -17 -27 -17 -13 -17 -13 -3 6 14 18 14 19 -2 7
-10 -8 -14 -20 -11 -29 4 -11 2 -14 -5 -9 -8 4 -10 2 -6 -7 3 -8 1 -18 -5 -22
-8 -4 -8 -12 -1 -24 7 -15 6 -18 -7 -17 -10 0 -17 -8 -18 -22 -1 -12 2 -22 6
-22 4 0 10 -7 13 -16 5 -14 4 -15 -8 -5 -8 7 -17 8 -20 3 -3 -6 1 -12 9 -16 8
-3 15 -10 15 -16 0 -6 -4 -9 -9 -5 -5 3 -13 1 -16 -5 -4 -6 -3 -10 2 -9 20 4
27 -2 13 -12 -12 -9 -10 -10 8 -6 22 5 23 4 8 -12 -19 -20 -20 -31 -5 -31 5 0
7 5 3 12 -4 6 -3 8 3 5 6 -4 10 -21 9 -38 -1 -18 3 -33 11 -36 7 -3 10 -9 7
-14 -3 -5 1 -6 9 -3 9 3 22 -5 32 -18 11 -15 15 -17 12 -5 -4 9 -2 17 3 17 6
0 10 -5 10 -10 0 -6 6 -5 14 2 8 7 12 17 9 21 -3 5 4 3 16 -5 12 -7 21 -17 21
-21 0 -5 7 -1 16 7 12 12 20 13 35 5 11 -6 17 -15 12 -22 -5 -9 -3 -9 9 0 8 7
18 10 21 6 4 -3 7 -1 7 6 0 7 -6 11 -13 8 -8 -3 -14 1 -14 8 0 10 6 11 24 2
12 -5 23 -14 23 -19 0 -5 7 -2 16 7 15 15 18 15 41 -1 14 -9 23 -11 19 -6 -11
17 18 20 37 4 16 -14 17 -14 12 0 -5 12 0 15 21 12 15 -1 31 -9 35 -16 6 -8 9
-9 9 -2 0 17 28 25 36 12 4 -6 3 -8 -4 -4 -6 3 -13 2 -16 -3 -4 -5 2 -8 11 -7
9 2 19 8 21 14 2 7 9 9 15 5 6 -4 8 0 4 10 -4 10 0 20 11 26 10 7 12 11 4 11
-7 0 -12 8 -10 17 2 10 -1 18 -7 18 -5 0 -14 3 -20 6 -14 9 -53 5 -62 -6 -5
-4 -2 -5 6 0 9 5 12 4 8 -3 -9 -13 -33 -10 -55 9 -10 9 -23 14 -30 11 -7 -2
-12 1 -12 7 0 6 -7 11 -17 11 -9 0 -13 3 -10 7 9 9 -13 34 -24 27 -5 -3 -6 3
-2 12 5 12 3 15 -6 9 -10 -6 -11 -3 -1 15 8 15 8 20 1 16 -19 -12 -33 4 -19
22 10 12 10 14 1 8 -7 -4 -13 -3 -13 1 0 5 6 15 13 22 7 8 7 11 1 8 -16 -9
-15 44 1 63 8 8 14 20 15 25 1 6 8 9 17 7 12 -3 14 2 10 18 -5 21 -5 21 15 3
15 -12 19 -13 14 -3 -4 8 -1 7 8 -4 9 -11 20 -15 28 -10 7 4 10 4 6 -1 -4 -4
-2 -15 4 -23 16 -19 19 -44 5 -36 -7 3 -3 -2 7 -10 18 -15 15 -20 -9 -17 -5 1
-1 -6 9 -14 17 -13 17 -15 4 -15 -9 0 -20 -5 -24 -12 -4 -7 -3 -8 4 -4 16 10
15 -7 0 -23 -10 -11 -10 -13 0 -7 7 4 12 1 12 -8 0 -9 5 -16 10 -16 6 0 10 4
10 9 0 5 11 8 25 6 20 -2 23 0 14 12 -9 11 -9 12 4 7 12 -4 15 -1 12 15 -3 15
0 18 12 14 12 -5 14 -3 8 7 -6 10 -4 12 10 6 15 -5 16 -4 5 9 -10 12 -10 15 0
15 7 0 10 7 6 15 -3 8 -1 15 4 15 5 0 7 7 4 15 -4 8 -9 13 -13 10 -4 -2 -8 2
-8 10 0 8 4 12 9 9 15 -9 8 24 -8 40 -8 9 -13 16 -10 16 3 0 -5 10 -17 23 -12
13 -25 22 -28 21 -3 -2 -13 6 -22 16 -9 11 -23 17 -32 14 -8 -4 -15 -2 -15 4
0 5 -9 12 -20 15 -12 3 -18 1 -14 -5 4 -6 -1 -8 -14 -4 -38 12 -62 15 -62 7z
m-282 -276 c-3 -3 -9 2 -12 12 -6 14 -5 15 5 6 7 -7 10 -15 7 -18z"/>
<path d="M365 389 c-4 -6 -4 -13 -1 -16 3 -4 6 -1 6 6 0 7 5 9 12 5 7 -4 8 -3
4 4 -9 15 -13 15 -21 1z"/>
<path d="M495 160 c3 -5 8 -10 11 -10 2 0 4 5 4 10 0 6 -5 10 -11 10 -5 0 -7
-4 -4 -10z"/>
<path d="M195 60 c-3 -5 -1 -10 4 -10 6 0 11 5 11 10 0 6 -2 10 -4 10 -3 0 -8
-4 -11 -10z"/>
<path d="M255 60 c-3 -5 -1 -10 4 -10 6 0 11 5 11 10 0 6 -2 10 -4 10 -3 0 -8
-4 -11 -10z"/>
<path d="M375 60 c-3 -5 -1 -10 4 -10 6 0 11 5 11 10 0 6 -2 10 -4 10 -3 0 -8
-4 -11 -10z"/>
<path d="M495 60 c-3 -5 -1 -10 4 -10 6 0 11 5 11 10 0 6 -2 10 -4 10 -3 0 -8
-4 -11 -10z"/>
</g>
</svg>
