<svg xmlns="http://www.w3.org/2000/svg" xmlns:xlink="http://www.w3.org/1999/xlink" width="1920" zoomAndPan="magnify" viewBox="0 0 1440 809.999993" height="1080" preserveAspectRatio="xMidYMid meet" version="1.0"><defs><g/><clipPath id="3920c735bd"><path d="M 351.742188 36.742188 L 1088.257812 36.742188 L 1088.257812 773.257812 L 351.742188 773.257812 Z M 351.742188 36.742188 " clip-rule="nonzero"/></clipPath><clipPath id="74b92fa117"><path d="M 720 36.742188 C 516.617188 36.742188 351.742188 201.617188 351.742188 405 C 351.742188 608.382812 516.617188 773.257812 720 773.257812 C 923.382812 773.257812 1088.257812 608.382812 1088.257812 405 C 1088.257812 201.617188 923.382812 36.742188 720 36.742188 Z M 720 36.742188 " clip-rule="nonzero"/></clipPath><clipPath id="2a0abf3224"><path d="M 454.710938 139.710938 L 985.289062 139.710938 L 985.289062 670.289062 L 454.710938 670.289062 Z M 454.710938 139.710938 " clip-rule="nonzero"/></clipPath><clipPath id="c49bdff386"><path d="M 720 139.710938 C 573.484375 139.710938 454.710938 258.484375 454.710938 405 C 454.710938 551.515625 573.484375 670.289062 720 670.289062 C 866.515625 670.289062 985.289062 551.515625 985.289062 405 C 985.289062 258.484375 866.515625 139.710938 720 139.710938 Z M 720 139.710938 " clip-rule="nonzero"/></clipPath><clipPath id="dc1ad4bf0c"><path d="M 454.710938 139.710938 L 984.960938 139.710938 L 984.960938 669.960938 L 454.710938 669.960938 Z M 454.710938 139.710938 " clip-rule="nonzero"/></clipPath><clipPath id="576b56deab"><path d="M 720 139.710938 C 573.484375 139.710938 454.710938 258.484375 454.710938 405 C 454.710938 551.515625 573.484375 670.289062 720 670.289062 C 866.515625 670.289062 985.289062 551.515625 985.289062 405 C 985.289062 258.484375 866.515625 139.710938 720 139.710938 Z M 720 139.710938 " clip-rule="nonzero"/></clipPath><clipPath id="9ee473344d"><path d="M 481.445312 166.445312 L 958.445312 166.445312 L 958.445312 643.445312 L 481.445312 643.445312 Z M 481.445312 166.445312 " clip-rule="nonzero"/></clipPath><clipPath id="56c2c10595"><path d="M 958.550781 404.996094 C 958.550781 408.902344 958.453125 412.804688 958.261719 416.703125 C 958.070312 420.601562 957.785156 424.492188 957.402344 428.378906 C 957.019531 432.265625 956.539062 436.136719 955.96875 440 C 955.394531 443.863281 954.726562 447.707031 953.964844 451.535156 C 953.203125 455.367188 952.347656 459.171875 951.402344 462.960938 C 950.453125 466.746094 949.410156 470.507812 948.277344 474.246094 C 947.144531 477.980469 945.921875 481.6875 944.605469 485.363281 C 943.289062 489.039062 941.886719 492.679688 940.390625 496.289062 C 938.898438 499.894531 937.316406 503.460938 935.644531 506.992188 C 933.976562 510.519531 932.222656 514.007812 930.382812 517.449219 C 928.542969 520.894531 926.617188 524.289062 924.609375 527.636719 C 922.601562 530.988281 920.515625 534.285156 918.347656 537.53125 C 916.175781 540.777344 913.929688 543.96875 911.605469 547.101562 C 909.277344 550.238281 906.878906 553.316406 904.402344 556.332031 C 901.925781 559.351562 899.375 562.304688 896.753906 565.199219 C 894.132812 568.09375 891.441406 570.917969 888.679688 573.679688 C 885.917969 576.441406 883.09375 579.132812 880.199219 581.753906 C 877.304688 584.375 874.351562 586.925781 871.332031 589.402344 C 868.316406 591.878906 865.238281 594.277344 862.101562 596.605469 C 858.96875 598.929688 855.777344 601.175781 852.53125 603.347656 C 849.285156 605.515625 845.984375 607.601562 842.636719 609.609375 C 839.289062 611.617188 835.894531 613.542969 832.449219 615.382812 C 829.007812 617.222656 825.519531 618.976562 821.992188 620.644531 C 818.460938 622.316406 814.894531 623.898438 811.289062 625.390625 C 807.679688 626.886719 804.039062 628.289062 800.363281 629.605469 C 796.6875 630.921875 792.980469 632.144531 789.246094 633.277344 C 785.507812 634.410156 781.746094 635.453125 777.960938 636.402344 C 774.171875 637.347656 770.367188 638.203125 766.535156 638.964844 C 762.707031 639.726562 758.863281 640.394531 755 640.96875 C 751.136719 641.539062 747.265625 642.019531 743.378906 642.402344 C 739.492188 642.785156 735.601562 643.070312 731.703125 643.261719 C 727.804688 643.453125 723.902344 643.550781 719.996094 643.550781 C 716.09375 643.550781 712.191406 643.453125 708.292969 643.261719 C 704.390625 643.070312 700.5 642.785156 696.613281 642.402344 C 692.730469 642.019531 688.855469 641.539062 684.996094 640.96875 C 681.132812 640.394531 677.285156 639.726562 673.457031 638.964844 C 669.628906 638.203125 665.820312 637.347656 662.035156 636.402344 C 658.246094 635.453125 654.484375 634.410156 650.75 633.277344 C 647.011719 632.144531 643.308594 630.921875 639.632812 629.605469 C 635.957031 628.289062 632.3125 626.886719 628.707031 625.390625 C 625.101562 623.898438 621.53125 622.316406 618.003906 620.644531 C 614.472656 618.976562 610.988281 617.222656 607.542969 615.382812 C 604.101562 613.542969 600.707031 611.617188 597.355469 609.609375 C 594.007812 607.601562 590.710938 605.515625 587.464844 603.347656 C 584.21875 601.175781 581.027344 598.929688 577.890625 596.605469 C 574.753906 594.277344 571.679688 591.878906 568.660156 589.402344 C 565.644531 586.925781 562.6875 584.375 559.792969 581.753906 C 556.902344 579.132812 554.074219 576.441406 551.316406 573.679688 C 548.554688 570.917969 545.863281 568.09375 543.242188 565.199219 C 540.621094 562.304688 538.070312 559.351562 535.59375 556.332031 C 533.117188 553.316406 530.714844 550.238281 528.390625 547.101562 C 526.0625 543.96875 523.816406 540.777344 521.648438 537.53125 C 519.480469 534.285156 517.390625 530.988281 515.382812 527.636719 C 513.375 524.289062 511.453125 520.894531 509.613281 517.449219 C 507.773438 514.007812 506.015625 510.519531 504.347656 506.992188 C 502.679688 503.460938 501.097656 499.894531 499.601562 496.289062 C 498.109375 492.679688 496.703125 489.039062 495.390625 485.363281 C 494.074219 481.6875 492.851562 477.980469 491.714844 474.246094 C 490.582031 470.507812 489.542969 466.746094 488.59375 462.960938 C 487.644531 459.171875 486.789062 455.367188 486.027344 451.535156 C 485.265625 447.707031 484.597656 443.863281 484.027344 440 C 483.453125 436.136719 482.976562 432.265625 482.59375 428.378906 C 482.210938 424.492188 481.921875 420.601562 481.730469 416.703125 C 481.539062 412.804688 481.445312 408.902344 481.445312 404.996094 C 481.445312 401.09375 481.539062 397.191406 481.730469 393.292969 C 481.921875 389.390625 482.210938 385.5 482.59375 381.613281 C 482.976562 377.730469 483.453125 373.855469 484.027344 369.996094 C 484.597656 366.132812 485.265625 362.285156 486.027344 358.457031 C 486.789062 354.628906 487.644531 350.820312 488.59375 347.035156 C 489.542969 343.246094 490.582031 339.484375 491.714844 335.75 C 492.851562 332.011719 494.074219 328.308594 495.390625 324.632812 C 496.703125 320.957031 498.109375 317.3125 499.601562 313.707031 C 501.097656 310.101562 502.679688 306.53125 504.347656 303.003906 C 506.015625 299.472656 507.773438 295.988281 509.613281 292.542969 C 511.453125 289.101562 513.375 285.707031 515.382812 282.355469 C 517.390625 279.007812 519.480469 275.710938 521.648438 272.464844 C 523.816406 269.21875 526.0625 266.027344 528.390625 262.890625 C 530.714844 259.753906 533.117188 256.679688 535.59375 253.660156 C 538.070312 250.644531 540.621094 247.6875 543.242188 244.796875 C 545.863281 241.902344 548.554688 239.074219 551.316406 236.316406 C 554.074219 233.554688 556.902344 230.863281 559.792969 228.242188 C 562.6875 225.621094 565.644531 223.070312 568.660156 220.59375 C 571.679688 218.117188 574.753906 215.714844 577.890625 213.390625 C 581.027344 211.0625 584.21875 208.816406 587.464844 206.648438 C 590.710938 204.480469 594.007812 202.390625 597.355469 200.382812 C 600.707031 198.375 604.101562 196.453125 607.542969 194.613281 C 610.988281 192.773438 614.472656 191.015625 618.003906 189.347656 C 621.53125 187.679688 625.101562 186.097656 628.707031 184.601562 C 632.3125 183.109375 635.957031 181.703125 639.632812 180.390625 C 643.308594 179.074219 647.011719 177.851562 650.75 176.714844 C 654.484375 175.582031 658.246094 174.542969 662.035156 173.59375 C 665.820312 172.644531 669.628906 171.789062 673.457031 171.027344 C 677.285156 170.265625 681.132812 169.597656 684.996094 169.027344 C 688.855469 168.453125 692.730469 167.976562 696.613281 167.59375 C 700.5 167.210938 704.390625 166.921875 708.292969 166.730469 C 712.191406 166.539062 716.09375 166.445312 719.996094 166.445312 C 723.902344 166.445312 727.804688 166.539062 731.703125 166.730469 C 735.601562 166.921875 739.492188 167.210938 743.378906 167.59375 C 747.265625 167.976562 751.136719 168.453125 755 169.027344 C 758.863281 169.597656 762.707031 170.265625 766.535156 171.027344 C 770.367188 171.789062 774.171875 172.644531 777.960938 173.59375 C 781.746094 174.542969 785.507812 175.582031 789.246094 176.714844 C 792.980469 177.851562 796.6875 179.074219 800.363281 180.390625 C 804.039062 181.703125 807.679688 183.109375 811.289062 184.601562 C 814.894531 186.097656 818.460938 187.679688 821.992188 189.347656 C 825.519531 191.015625 829.007812 192.773438 832.449219 194.613281 C 835.894531 196.453125 839.289062 198.375 842.636719 200.382812 C 845.988281 202.390625 849.285156 204.480469 852.53125 206.648438 C 855.777344 208.816406 858.96875 211.0625 862.101562 213.390625 C 865.238281 215.714844 868.316406 218.117188 871.332031 220.59375 C 874.351562 223.070312 877.304688 225.621094 880.199219 228.242188 C 883.09375 230.863281 885.917969 233.554688 888.679688 236.316406 C 891.441406 239.074219 894.132812 241.902344 896.753906 244.796875 C 899.375 247.6875 901.925781 250.644531 904.402344 253.660156 C 906.878906 256.679688 909.277344 259.753906 911.605469 262.890625 C 913.929688 266.027344 916.175781 269.21875 918.347656 272.464844 C 920.515625 275.710938 922.601562 279.007812 924.609375 282.355469 C 926.617188 285.707031 928.542969 289.101562 930.382812 292.542969 C 932.222656 295.988281 933.976562 299.472656 935.644531 303.003906 C 937.316406 306.53125 938.898438 310.101562 940.390625 313.707031 C 941.886719 317.3125 943.289062 320.957031 944.605469 324.632812 C 945.921875 328.308594 947.144531 332.011719 948.277344 335.75 C 949.410156 339.484375 950.453125 343.246094 951.402344 347.035156 C 952.347656 350.820312 953.203125 354.628906 953.964844 358.457031 C 954.726562 362.285156 955.394531 366.132812 955.96875 369.996094 C 956.539062 373.855469 957.019531 377.730469 957.402344 381.613281 C 957.785156 385.5 958.070312 389.390625 958.261719 393.292969 C 958.453125 397.191406 958.550781 401.09375 958.550781 404.996094 Z M 958.550781 404.996094 " clip-rule="nonzero"/></clipPath><clipPath id="d17370567b"><path d="M 507 493 L 931 493 L 931 643.445312 L 507 643.445312 Z M 507 493 " clip-rule="nonzero"/></clipPath></defs><rect x="-144" width="1728" fill="#ffffff" y="-80.999999" height="971.999992" fill-opacity="1"/><rect x="-144" width="1728" fill="#ffffff" y="-80.999999" height="971.999992" fill-opacity="1"/><g clip-path="url(#3920c735bd)"><g clip-path="url(#74b92fa117)"><path fill="#0477bf" d="M 351.742188 36.742188 L 1088.257812 36.742188 L 1088.257812 773.257812 L 351.742188 773.257812 Z M 351.742188 36.742188 " fill-opacity="1" fill-rule="nonzero"/></g></g><g clip-path="url(#2a0abf3224)"><g clip-path="url(#c49bdff386)"><path fill="#0477bf" d="M 454.710938 139.710938 L 985.289062 139.710938 L 985.289062 670.289062 L 454.710938 670.289062 Z M 454.710938 139.710938 " fill-opacity="1" fill-rule="nonzero"/></g></g><g clip-path="url(#dc1ad4bf0c)"><g clip-path="url(#576b56deab)"><path stroke-linecap="butt" transform="matrix(0.75, 0, 0, 0.75, 454.710199, 139.710234)" fill="none" stroke-linejoin="miter" d="M 353.719752 0.000938305 C 158.365576 0.000938305 0.000984205 158.36553 0.000984205 353.719706 C 0.000984205 549.073883 158.365576 707.438474 353.719752 707.438474 C 549.073928 707.438474 707.43852 549.073883 707.43852 353.719706 C 707.43852 158.36553 549.073928 0.000938305 353.719752 0.000938305 Z M 353.719752 0.000938305 " stroke="#ffffff" stroke-width="72" stroke-opacity="1" stroke-miterlimit="4"/></g></g><g fill="#ffffff" fill-opacity="1"><g transform="translate(598.899423, 148.011797)"><g><path d="M -3.226562 -23.257812 C 1.21875 -11.273438 12.5 -2.175781 34.484375 -9.320312 C 55.363281 -16.101562 60.722656 -27.277344 56.449219 -40.429688 C 52.664062 -52.074219 43.753906 -56.28125 29.710938 -53.382812 L 15.203125 -50.554688 C 9.488281 -49.363281 6.230469 -51.523438 4.960938 -55.4375 C 3.261719 -60.660156 6.503906 -65.375 14.632812 -68.015625 C 23.46875 -70.886719 29.191406 -68.304688 32.015625 -62.34375 L 46.972656 -67.203125 C 42.320312 -78.789062 30.957031 -85.75 10.980469 -79.257812 C -7.789062 -73.160156 -14.019531 -61.589844 -10.105469 -49.542969 C -6.519531 -38.503906 2.226562 -34.128906 14.53125 -36.574219 L 29.90625 -39.460938 C 36.089844 -40.582031 39.949219 -38.949219 41.582031 -33.933594 C 43.308594 -28.613281 41.136719 -24.023438 31 -20.726562 C 20.457031 -17.300781 14.347656 -21.085938 11.628906 -28.082031 Z M -3.226562 -23.257812 "/></g></g></g><g fill="#ffffff" fill-opacity="1"><g transform="translate(684.8571, 124.01712)"><g><path d="M 22 -13.234375 L 20.796875 -70.640625 L 4.648438 -70.304688 L 6.121094 -0.128906 L 55.085938 -1.15625 L 54.816406 -13.921875 Z M 22 -13.234375 "/></g></g></g><g fill="#ffffff" fill-opacity="1"><g transform="translate(760.576974, 123.290096)"><g><path d="M 39.496094 13.800781 C 65.261719 21.578125 79.925781 7.703125 85.507812 -10.789062 C 91 -28.976562 86.585938 -49.050781 60.820312 -56.832031 C 35.054688 -64.613281 20.199219 -50.464844 14.675781 -32.175781 C 9.0625 -13.582031 13.730469 6.019531 39.496094 13.800781 Z M 30.742188 -27.324219 C 35.226562 -42.175781 42.285156 -48.757812 57.039062 -44.300781 C 71.789062 -39.847656 74.027344 -30.460938 69.542969 -15.609375 C 65.121094 -0.957031 58.0625 5.621094 43.308594 1.167969 C 28.554688 -3.285156 26.316406 -12.671875 30.742188 -27.324219 Z M 30.742188 -27.324219 "/></g></g></g><g clip-path="url(#9ee473344d)"><g clip-path="url(#56c2c10595)"><path fill="#0477bf" d="M 481.445312 643.445312 L 481.445312 166.445312 L 958.445312 166.445312 L 958.445312 643.445312 Z M 481.445312 643.445312 " fill-opacity="1" fill-rule="nonzero"/></g></g><path fill="#ffffff" d="M 625.585938 502.738281 C 625.585938 502.738281 683.585938 396.082031 645.5625 307.6875 C 640.300781 339.800781 632.351562 332.28125 631.171875 346.246094 C 629.988281 360.207031 633.425781 375.351562 633.425781 375.351562 C 633.425781 375.351562 606.683594 360.101562 610.441406 338.621094 C 614.199219 317.136719 632.246094 309.082031 632.246094 309.082031 C 632.246094 309.082031 580.257812 310.90625 575.75 334 C 561.464844 319.179688 599.808594 280.511719 630.957031 291.789062 C 606.683594 259.890625 611.730469 259.03125 618.605469 247.429688 C 625.476562 235.828125 622.042969 216.605469 613.339844 209.300781 C 643.09375 221.4375 643.09375 248.71875 642.984375 260.535156 C 642.878906 272.347656 650.289062 281.15625 650.289062 281.15625 C 650.289062 281.15625 655.550781 257.097656 676.925781 249.46875 C 698.300781 241.84375 726.121094 258.601562 726.121094 258.601562 C 726.121094 258.601562 719.136719 251.617188 701.09375 260.105469 C 683.050781 268.695312 660.816406 287.171875 660.816406 287.171875 C 660.816406 287.171875 686.699219 275.355469 707.859375 287.601562 C 729.019531 299.84375 724.1875 344.3125 724.1875 344.3125 L 714.195312 321.757812 C 714.195312 321.757812 710.976562 339.691406 711.191406 336.578125 C 711.296875 333.355469 707.109375 317.675781 697.980469 309.1875 C 688.957031 300.703125 672.308594 300.273438 672.308594 300.273438 C 672.308594 300.273438 693.359375 310.90625 694.328125 326.160156 C 695.292969 341.410156 686.914062 355.050781 687.023438 351.292969 C 687.128906 347.640625 682.511719 330.027344 678.644531 325.621094 C 674.886719 321.21875 655.765625 303.496094 655.765625 303.496094 C 655.765625 303.496094 674.457031 327.878906 677.570312 363.644531 C 680.6875 399.410156 660.921875 505.746094 660.921875 505.746094 L 629.238281 502.523438 Z M 625.585938 502.738281 " fill-opacity="1" fill-rule="nonzero"/><g clip-path="url(#d17370567b)"><path fill="#ffffff" d="M 651.148438 493.285156 C 603.03125 493.824219 556.199219 514.015625 507.972656 513.800781 C 548.683594 593.28125 630.527344 643.441406 719.996094 643.550781 C 808.5 643.441406 889.703125 594.355469 930.839844 516.058594 C 905.0625 514.015625 880.355469 512.511719 876.277344 513.371094 C 755.121094 539.472656 758.554688 498.441406 661.566406 493.394531 C 658.128906 493.285156 654.585938 493.179688 651.148438 493.285156 Z M 651.148438 493.285156 " fill-opacity="1" fill-rule="nonzero"/></g><path fill="#ffffff" d="M 653.726562 501.878906 C 654.800781 497.582031 681.761719 432.277344 732.242188 399.195312 C 718.386719 396.082031 693.683594 399.410156 685.089844 411.226562 C 687.023438 384.480469 720.535156 382.871094 735.355469 391.140625 C 722.144531 370.195312 699.804688 366.761719 688.527344 374.386719 C 696.691406 346.890625 735.785156 355.480469 742.445312 389.101562 C 749.640625 357.09375 729.878906 341.625 729.878906 341.625 C 729.878906 341.625 754.90625 339.261719 761.132812 358.382812 C 767.363281 377.5 748.351562 391.25 748.351562 391.25 C 748.351562 391.25 779.179688 372.023438 792.820312 388.5625 C 806.460938 405.105469 803.558594 412.410156 803.558594 412.410156 C 803.558594 412.410156 774.882812 393.933594 750.070312 399.195312 C 774.453125 407.039062 785.839844 425.191406 773.484375 444.523438 C 765.324219 421.96875 745.128906 403.601562 745.128906 403.601562 C 745.128906 403.601562 766.074219 429.808594 748.566406 447.746094 C 741.910156 419.605469 738.578125 403.277344 738.578125 403.277344 C 738.578125 403.277344 718.386719 418.101562 702.8125 441.625 C 687.238281 465.144531 672.953125 515.949219 672.953125 515.949219 Z M 653.726562 501.878906 " fill-opacity="1" fill-rule="nonzero"/><path fill="#0477bf" d="M 544.0625 525.832031 C 544.171875 524.972656 555.664062 527.65625 572.847656 523.789062 C 586.273438 520.890625 629.882812 507.25 658.558594 508.429688 C 661.246094 508.539062 663.929688 508.859375 666.617188 509.289062 C 683.585938 511.867188 698.40625 518.3125 712.15625 520.890625 C 756.085938 529.160156 788.09375 530.449219 788.09375 531.953125 C 787.984375 533.457031 755.980469 534.636719 711.082031 527.335938 C 696.367188 524.972656 681.332031 518.632812 665.648438 516.273438 C 663.179688 515.949219 660.707031 515.628906 658.238281 515.519531 C 624.726562 513.695312 594.757812 525.1875 573.601562 528.300781 C 554.910156 531.09375 543.957031 526.691406 544.0625 525.832031 Z M 544.0625 525.832031 " fill-opacity="1" fill-rule="nonzero"/><path fill="#0477bf" d="M 643.414062 538.933594 C 642.878906 537.109375 666.292969 528.945312 696.261719 530.664062 C 726.226562 532.382812 749.75 538.933594 749.425781 540.867188 C 749.105469 542.800781 724.9375 539.363281 695.832031 537.644531 C 666.722656 535.820312 643.953125 540.761719 643.414062 538.933594 Z M 643.414062 538.933594 " fill-opacity="1" fill-rule="nonzero"/><path fill="#0477bf" d="M 711.835938 545.488281 C 712.050781 544.519531 721.394531 546.667969 736.539062 547.207031 C 753.832031 547.742188 770.480469 545.808594 796.042969 541.835938 C 796.042969 541.835938 796.148438 541.835938 796.148438 541.835938 C 821.710938 537.644531 838.789062 535.175781 856.621094 535.605469 C 872.195312 535.925781 881.644531 538.613281 881.429688 539.578125 C 881.324219 540.546875 871.765625 539.578125 856.621094 540.546875 C 837.285156 541.726562 824.71875 544.304688 797.117188 548.707031 L 797.007812 548.707031 C 771.984375 552.789062 753.078125 554.078125 736 552.144531 C 720.640625 550.320312 711.511719 546.453125 711.835938 545.488281 Z M 711.835938 545.488281 " fill-opacity="1" fill-rule="nonzero"/><path fill="#0477bf" d="M 592.71875 561.0625 C 593.257812 560.308594 599.808594 564.066406 611.300781 567.183594 C 623.757812 570.511719 638.367188 571.800781 658.023438 570.621094 C 658.023438 570.621094 658.34375 570.621094 658.34375 570.621094 C 676.925781 569.332031 694.113281 567.183594 706.570312 567.074219 C 719.136719 566.96875 726.765625 568.472656 726.65625 569.4375 C 726.550781 570.40625 718.921875 570.621094 706.785156 572.015625 C 694.648438 573.304688 677.785156 576.3125 658.667969 577.601562 L 658.34375 577.601562 C 638.261719 578.996094 622.148438 576.636719 609.582031 571.800781 C 598.089844 567.289062 592.183594 561.921875 592.71875 561.0625 Z M 592.71875 561.0625 " fill-opacity="1" fill-rule="nonzero"/><path fill="#0477bf" d="M 651.792969 588.773438 C 651.902344 587.484375 671.984375 592.960938 699.480469 589.417969 C 713.550781 587.699219 729.339844 581.46875 747.816406 578.246094 C 747.921875 578.246094 748.136719 578.246094 748.246094 578.136719 C 802.058594 568.902344 846.308594 578.246094 846.09375 580.070312 C 845.878906 582.003906 801.84375 575.992188 749.425781 585.011719 C 749.320312 585.011719 749.105469 585.011719 748.996094 585.121094 C 731.597656 588.128906 715.164062 594.140625 700.125 595.324219 C 670.265625 597.6875 651.6875 590.0625 651.792969 588.773438 Z M 651.792969 588.773438 " fill-opacity="1" fill-rule="nonzero"/><path fill="#0477bf" d="M 787.234375 594.679688 C 787.019531 592.851562 795.074219 589.953125 805.816406 590.492188 C 816.558594 591.136719 824.183594 595.214844 823.644531 597.042969 C 823.109375 598.761719 814.945312 598.007812 805.386719 597.472656 C 795.71875 596.933594 787.449219 596.613281 787.234375 594.679688 Z M 787.234375 594.679688 " fill-opacity="1" fill-rule="nonzero"/><path fill="#ffffff" d="M 577.898438 508.96875 C 575.855469 505.101562 551.902344 438.507812 567.261719 380.078125 C 554.910156 387.058594 538.800781 406.179688 540.410156 420.679688 C 523.871094 399.519531 547.714844 375.890625 564.253906 372.023438 C 540.410156 365.257812 521.613281 377.714844 518.285156 391.035156 C 505.933594 365.148438 540.625 345.277344 568.121094 365.792969 C 552.011719 337.222656 526.984375 339.046875 526.984375 339.046875 C 526.984375 339.046875 543.957031 320.46875 561.355469 330.5625 C 578.757812 340.550781 573.921875 363.429688 573.921875 363.429688 C 573.921875 363.429688 583.910156 328.414062 605.070312 331.636719 C 626.230469 334.753906 629.023438 342.054688 629.023438 342.054688 C 629.023438 342.054688 595.402344 347.535156 580.582031 368.15625 C 603.996094 357.628906 624.511719 363.429688 628.378906 386.09375 C 607.21875 374.816406 579.9375 374.816406 579.9375 374.816406 C 579.9375 374.816406 613.125 380.1875 612.160156 405.210938 C 588.316406 388.886719 574.890625 378.898438 574.890625 378.898438 C 574.890625 378.898438 569.839844 403.492188 574.03125 431.3125 C 578.21875 459.238281 601.742188 506.496094 601.742188 506.496094 Z M 577.898438 508.96875 " fill-opacity="1" fill-rule="nonzero"/><path fill="#ffffff" d="M 747.277344 256.988281 C 753.078125 247.539062 761.886719 247.109375 767.792969 252.585938 C 773.808594 241.09375 783.582031 243.027344 787.878906 248.398438 C 781.972656 246.785156 776.492188 245.820312 771.015625 254.089844 C 777.566406 257.203125 780.898438 261.5 780.898438 261.5 C 780.898438 261.5 773.914062 260.75 770.265625 264.9375 C 771.125 258.816406 764.570312 256.453125 759.84375 260.640625 C 760.597656 255.914062 763.820312 254.519531 763.820312 254.519531 C 763.820312 254.519531 756.085938 249.363281 747.277344 256.988281 Z M 747.277344 256.988281 " fill-opacity="1" fill-rule="nonzero"/><path fill="#ffffff" d="M 797.976562 263.003906 C 801.734375 256.773438 807.535156 256.453125 811.507812 260.105469 C 815.484375 252.585938 821.925781 253.765625 824.71875 257.3125 C 820.851562 256.238281 817.203125 255.59375 813.65625 261.070312 C 817.953125 263.113281 820.207031 266.011719 820.207031 266.011719 C 820.207031 266.011719 815.589844 265.582031 813.226562 268.265625 C 813.765625 264.292969 809.46875 262.683594 806.351562 265.472656 C 806.78125 262.359375 808.929688 261.394531 808.929688 261.394531 C 808.929688 261.394531 803.773438 258.0625 797.976562 263.003906 Z M 797.976562 263.003906 " fill-opacity="1" fill-rule="nonzero"/><path fill="#ffffff" d="M 781.21875 287.277344 C 784.980469 281.046875 790.777344 280.726562 794.753906 284.378906 C 798.726562 276.859375 805.171875 278.042969 807.964844 281.585938 C 804.097656 280.511719 800.445312 279.867188 796.902344 285.34375 C 801.199219 287.386719 803.453125 290.285156 803.453125 290.285156 C 803.453125 290.285156 798.835938 289.855469 796.472656 292.542969 C 797.007812 288.566406 792.710938 286.957031 789.597656 289.75 C 790.027344 286.632812 792.175781 285.667969 792.175781 285.667969 C 792.175781 285.667969 787.019531 282.230469 781.21875 287.277344 Z M 781.21875 287.277344 " fill-opacity="1" fill-rule="nonzero"/><path fill="#ffffff" d="M 822.679688 291.574219 C 825.472656 286.957031 829.769531 286.742188 832.667969 289.425781 C 835.566406 283.839844 840.402344 284.699219 842.550781 287.386719 C 839.648438 286.632812 836.964844 286.097656 834.277344 290.179688 C 837.5 291.683594 839.113281 293.832031 839.113281 293.832031 C 839.113281 293.832031 835.675781 293.507812 833.847656 295.546875 C 834.277344 292.542969 831.058594 291.359375 828.800781 293.402344 C 829.125 291.039062 830.734375 290.394531 830.734375 290.394531 C 830.734375 290.394531 826.976562 287.816406 822.679688 291.574219 Z M 822.679688 291.574219 " fill-opacity="1" fill-rule="nonzero"/><path fill="#ffffff" d="M 720.535156 512.082031 C 720.75 486.089844 731.058594 467.078125 746.632812 457.089844 C 753.9375 476.53125 734.605469 513.15625 734.605469 513.15625 Z M 720.535156 512.082031 " fill-opacity="1" fill-rule="nonzero"/><path fill="#ffffff" d="M 737.398438 515.949219 C 743.625 490.707031 758.125 474.597656 775.632812 468.582031 C 778.210938 489.203125 750.824219 520.351562 750.824219 520.351562 Z M 737.398438 515.949219 " fill-opacity="1" fill-rule="nonzero"/><path fill="#ffffff" d="M 888.519531 311.015625 C 888.519531 311.015625 889.917969 317.78125 888.628906 320.359375 C 887.339844 322.9375 886.050781 320.683594 885.511719 322.9375 C 885.082031 325.191406 885.296875 323.582031 888.519531 325.40625 C 891.847656 327.234375 893.78125 330.242188 896.359375 334.324219 C 899.046875 338.40625 914.191406 341.839844 914.191406 341.839844 C 914.191406 341.839844 916.984375 343.238281 916.984375 345.492188 C 916.984375 347.75 912.902344 344.632812 912.902344 344.632812 C 912.902344 344.632812 901.730469 345.386719 898.1875 343.238281 C 894.640625 341.195312 889.703125 335.398438 889.703125 335.398438 C 889.703125 335.398438 888.089844 345.492188 890.347656 347.210938 C 892.601562 348.929688 904.09375 353.546875 906.777344 358.167969 C 909.464844 362.785156 902.804688 381.796875 904.953125 383.515625 C 907.101562 385.234375 911.828125 386.199219 910.324219 387.058594 C 908.925781 387.917969 898.507812 388.132812 897.863281 385.339844 C 897.21875 382.550781 899.691406 361.066406 899.691406 361.066406 L 890.992188 356.554688 C 890.992188 356.554688 894.964844 359.992188 893.351562 363.644531 C 891.636719 367.296875 884.332031 377.5 883.792969 380.832031 C 883.257812 384.160156 884.652344 384.160156 886.585938 386.523438 C 888.414062 388.886719 887.660156 390.496094 885.082031 389.207031 C 882.503906 387.917969 877.886719 386.199219 877.671875 383.835938 C 877.457031 381.476562 886.15625 362.035156 886.15625 362.035156 C 886.15625 362.035156 876.707031 358.167969 877.027344 352.152344 C 877.347656 346.136719 877.347656 335.828125 877.347656 335.828125 C 877.347656 335.828125 871.335938 337.867188 868.648438 340.335938 C 865.964844 342.914062 866.394531 343.453125 862.527344 343.558594 C 858.554688 343.667969 852.859375 342.164062 854.363281 340.765625 C 855.867188 339.371094 860.378906 340.015625 863.277344 339.261719 C 866.179688 338.511719 865.320312 337.332031 868.433594 334.214844 C 871.550781 331.101562 874.34375 327.664062 876.8125 326.910156 C 879.28125 326.160156 881.539062 324.976562 881.539062 324.976562 C 882.183594 321.003906 878.851562 320.359375 878.316406 317.996094 C 877.5625 314.882812 877.671875 312.089844 879.605469 310.15625 C 881.324219 308.007812 887.125 306.398438 888.519531 311.015625 Z M 888.519531 311.015625 " fill-opacity="1" fill-rule="nonzero"/><path fill="#ffffff" d="M 922.246094 383.945312 C 922.246094 383.945312 868.328125 379.113281 850.605469 390.175781 C 865.535156 398.660156 899.90625 395.976562 907.960938 394.257812 C 916.015625 392.644531 922.246094 383.945312 922.246094 383.945312 Z M 922.246094 383.945312 " fill-opacity="1" fill-rule="nonzero"/><path fill="#ffffff" d="M 884.007812 392 C 850.605469 392.109375 839.328125 415.84375 839.328125 415.84375 C 839.328125 415.84375 854.6875 401.558594 876.0625 408.433594 C 858.984375 410.367188 827.40625 428.839844 835.03125 450.859375 C 839.542969 433.460938 863.707031 420.140625 886.585938 433.675781 C 909.464844 447.101562 907.636719 476.421875 870.261719 510.148438 C 856.296875 522.824219 840.078125 527.980469 825.148438 529.484375 L 915.480469 539.6875 C 915.480469 539.6875 916.125 539.472656 916.984375 539.042969 C 935.136719 512.40625 947.703125 482.332031 953.824219 450.644531 C 945.339844 417.457031 921.921875 395.007812 890.882812 392.214844 C 888.628906 392.109375 886.265625 392 884.007812 392 Z M 825.257812 529.589844 L 779.285156 524.433594 C 779.285156 524.328125 800.339844 532.0625 825.257812 529.589844 Z M 825.257812 529.589844 " fill-opacity="1" fill-rule="nonzero"/><path stroke-linecap="butt" transform="matrix(0.720783, 0.207295, -0.207295, 0.720783, 351.107741, 313.167045)" fill="none" stroke-linejoin="miter" d="M -0.000516993 8.997718 L 165.395455 8.996901 " stroke="#ffffff" stroke-width="18" stroke-opacity="1" stroke-miterlimit="4"/><path stroke-linecap="butt" transform="matrix(0.72133, -0.205385, 0.205385, 0.72133, 347.348427, 483.850436)" fill="none" stroke-linejoin="miter" d="M -0.00251905 9.001147 L 165.393977 8.997455 " stroke="#ffffff" stroke-width="18" stroke-opacity="1" stroke-miterlimit="4"/><path stroke-linecap="butt" transform="matrix(-0.720783, -0.207295, 0.207295, -0.720783, 1087.952519, 496.832923)" fill="none" stroke-linejoin="miter" d="M 0.00160744 8.997063 L 165.392574 8.997685 " stroke="#ffffff" stroke-width="18" stroke-opacity="1" stroke-miterlimit="4"/><path stroke-linecap="butt" transform="matrix(-0.72133, 0.205385, -0.205385, -0.72133, 1091.711903, 326.149604)" fill="none" stroke-linejoin="miter" d="M -0.000306596 9.001833 L 165.396189 8.99814 " stroke="#ffffff" stroke-width="18" stroke-opacity="1" stroke-miterlimit="4"/><g fill="#ffffff" fill-opacity="1"><g transform="translate(373.242291, 397.74069)"><g><path d="M 9.695312 -5.859375 L 9.695312 -11.550781 L 23.4375 -11.550781 L 23.4375 -16.988281 L 9.695312 -16.988281 L 9.695312 -22.171875 L 24.703125 -22.171875 L 24.703125 -28.03125 L 2.277344 -28.03125 L 2.277344 0 L 24.828125 0 L 24.828125 -5.859375 Z M 9.695312 -5.859375 "/></g></g></g><g fill="#ffffff" fill-opacity="1"><g transform="translate(404.458436, 397.74069)"><g><path d="M 1.476562 -9.105469 C 1.769531 -4.089844 4.972656 0.714844 14.207031 0.714844 C 23.308594 0.714844 26.765625 -2.992188 26.765625 -8.515625 C 26.765625 -13.574219 23.984375 -16.480469 17.832031 -17.070312 L 12.476562 -17.621094 C 10.328125 -17.871094 9.484375 -18.925781 9.484375 -20.359375 C 9.484375 -22.214844 11.171875 -23.351562 14.035156 -23.351562 C 17.199219 -23.351562 18.882812 -21.878906 19.179688 -19.644531 L 26.515625 -19.644531 C 26.132812 -24.617188 22.679688 -28.746094 14.035156 -28.746094 C 5.945312 -28.746094 1.980469 -25.121094 1.980469 -19.855469 C 1.980469 -15.089844 4.890625 -12.222656 9.949219 -11.632812 L 16.058594 -10.960938 C 18.167969 -10.664062 19.265625 -9.738281 19.265625 -7.882812 C 19.265625 -5.945312 17.914062 -4.679688 14.332031 -4.679688 C 10.410156 -4.679688 8.894531 -6.785156 8.683594 -9.105469 Z M 1.476562 -9.105469 "/></g></g></g><g fill="#ffffff" fill-opacity="1"><g transform="translate(371.124986, 434.03734)"><g><path d="M 26.765625 -28.03125 L 1.308594 -28.03125 L 1.308594 -22.171875 L 10.328125 -22.171875 L 10.328125 0 L 17.789062 0 L 17.789062 -22.171875 L 26.765625 -22.171875 Z M 26.765625 -28.03125 "/></g></g></g><g fill="#ffffff" fill-opacity="1"><g transform="translate(403.688926, 434.03734)"><g><path d="M 16.441406 -28.03125 L 2.277344 -28.03125 L 2.277344 0 L 16.441406 0 C 25.542969 0 29.71875 -6.785156 29.71875 -14.078125 C 29.71875 -21.371094 25.542969 -28.03125 16.441406 -28.03125 Z M 14.753906 -5.859375 L 9.695312 -5.859375 L 9.695312 -22.171875 L 14.753906 -22.171875 C 19.8125 -22.171875 21.960938 -19.558594 21.960938 -14.078125 C 21.960938 -8.683594 19.855469 -5.859375 14.753906 -5.859375 Z M 14.753906 -5.859375 "/></g></g></g><g fill="#ffffff" fill-opacity="1"><g transform="translate(1004.535097, 397.74069)"><g><path d="M 2.570312 0 L 27.820312 0 L 27.820312 -5.773438 L 12.433594 -5.773438 L 17.832031 -9.230469 C 24.914062 -13.40625 27.230469 -16.734375 27.230469 -20.484375 C 27.230469 -24.996094 24.40625 -28.746094 15.847656 -28.746094 C 5.984375 -28.746094 2.277344 -22.761719 2.148438 -16.777344 L 9.609375 -16.777344 C 9.738281 -20.234375 11.085938 -23.140625 15.511719 -23.140625 C 18.503906 -23.140625 19.683594 -21.625 19.683594 -19.769531 C 19.683594 -18.125 18.882812 -16.691406 16.734375 -15.257812 L 2.570312 -5.773438 Z M 2.570312 0 "/></g></g></g><g fill="#ffffff" fill-opacity="1"><g transform="translate(1038.868049, 397.74069)"><g><path d="M 15.257812 0.675781 C 25.503906 0.675781 29.210938 -6.535156 29.210938 -13.996094 C 29.210938 -21.328125 25.503906 -28.746094 15.257812 -28.746094 C 5.015625 -28.746094 1.308594 -21.371094 1.308594 -13.996094 C 1.308594 -6.492188 5.015625 0.675781 15.257812 0.675781 Z M 9.0625 -13.996094 C 9.0625 -19.558594 10.285156 -22.679688 15.257812 -22.679688 C 20.234375 -22.679688 21.457031 -19.558594 21.457031 -13.996094 C 21.457031 -8.515625 20.234375 -5.351562 15.257812 -5.351562 C 10.285156 -5.351562 9.0625 -8.515625 9.0625 -13.996094 Z M 9.0625 -13.996094 "/></g></g></g><g fill="#ffffff" fill-opacity="1"><g transform="translate(1005.140042, 434.03734)"><g><path d="M 2.570312 0 L 27.820312 0 L 27.820312 -5.773438 L 12.433594 -5.773438 L 17.832031 -9.230469 C 24.914062 -13.40625 27.230469 -16.734375 27.230469 -20.484375 C 27.230469 -24.996094 24.40625 -28.746094 15.847656 -28.746094 C 5.984375 -28.746094 2.277344 -22.761719 2.148438 -16.777344 L 9.609375 -16.777344 C 9.738281 -20.234375 11.085938 -23.140625 15.511719 -23.140625 C 18.503906 -23.140625 19.683594 -21.625 19.683594 -19.769531 C 19.683594 -18.125 18.882812 -16.691406 16.734375 -15.257812 L 2.570312 -5.773438 Z M 2.570312 0 "/></g></g></g><g fill="#ffffff" fill-opacity="1"><g transform="translate(1039.472993, 434.03734)"><g><path d="M 23.859375 -11.507812 L 23.859375 -28.03125 L 12.941406 -28.03125 L 1.136719 -11.507812 L 1.136719 -5.734375 L 16.441406 -5.734375 L 16.441406 0 L 23.859375 0 L 23.859375 -5.734375 L 28.285156 -5.734375 L 28.285156 -11.507812 Z M 7.164062 -11.507812 L 16.441406 -24.027344 L 16.441406 -11.507812 Z M 7.164062 -11.507812 "/></g></g></g><g fill="#ffffff" fill-opacity="1"><g transform="translate(424.260099, 587.665909)"><g><path d="M 81.082031 2.328125 L 40.152344 34.601562 C 42.011719 31.824219 43.757812 28.898438 45.121094 26.394531 L 66.828125 -15.75 L 52.230469 -34.269531 L 3.359375 4.261719 L 11.820312 14.992188 L 52.679688 -17.222656 C 50.757812 -14.519531 49.015625 -11.59375 47.382812 -8.523438 L 26.074219 33.070312 L 40.675781 51.585938 L 89.542969 13.054688 Z M 81.082031 2.328125 "/></g></g></g><g fill="#ffffff" fill-opacity="1"><g transform="translate(479.101668, 654.393615)"><g><path d="M 28.511719 23.722656 C 47.496094 38.1875 63.980469 31.21875 74.359375 17.59375 C 84.566406 4.195312 87.136719 -13.84375 68.15625 -28.308594 C 49.175781 -42.769531 32.445312 -35.632812 22.179688 -22.160156 C 11.742188 -8.464844 9.53125 9.261719 28.511719 23.722656 Z M 34.015625 -13.144531 C 42.351562 -24.085938 50.253906 -27.355469 61.125 -19.078125 C 71.992188 -10.796875 70.933594 -2.308594 62.597656 8.636719 C 54.375 19.429688 46.46875 22.699219 35.601562 14.417969 C 24.734375 6.140625 25.789062 -2.351562 34.015625 -13.144531 Z M 34.015625 -13.144531 "/></g></g></g><g fill="#ffffff" fill-opacity="1"><g transform="translate(551.214338, 706.242264)"><g><path d="M 11.558594 -17.3125 C 7.449219 -6.753906 9.566406 5.921875 28.339844 14.132812 C 46.175781 21.933594 56.308594 17.683594 61.21875 6.453125 C 65.570312 -3.492188 62.140625 -11.527344 51.128906 -17.878906 L 39.847656 -24.550781 C 35.359375 -27.125 34.476562 -30.476562 35.9375 -33.820312 C 37.886719 -38.277344 42.8125 -39.492188 49.757812 -36.457031 C 57.300781 -33.15625 59.574219 -28.074219 57.933594 -22.460938 L 70.710938 -16.871094 C 74.449219 -27.289062 71.019531 -38.59375 53.957031 -46.058594 C 37.925781 -53.070312 26.984375 -49.074219 22.480469 -38.785156 C 18.355469 -29.355469 21.578125 -21.304688 31.167969 -15.679688 L 43.058594 -8.539062 C 47.816406 -5.640625 49.414062 -2.285156 47.539062 2 C 45.550781 6.546875 41.410156 8.308594 32.75 4.519531 C 23.75 0.582031 21.925781 -5.527344 24.246094 -11.761719 Z M 11.558594 -17.3125 "/></g></g></g><g fill="#ffffff" fill-opacity="1"><g transform="translate(622.250043, 735.531563)"><g><path d="M 69.164062 -49.878906 L 14.980469 -60.480469 L 12.824219 -49.460938 L 32.9375 -45.523438 L 23.144531 4.527344 L 37.101562 7.257812 L 46.894531 -42.792969 L 67.007812 -38.859375 Z M 69.164062 -49.878906 "/></g></g></g><g fill="#ffffff" fill-opacity="1"><g transform="translate(697.181675, 749.013717)"><g><path d="M 53.953125 -2.113281 L 68.261719 -2.671875 L 43.945312 -64 L 22.25 -63.148438 L 2.804688 -0.109375 L 17.113281 -0.671875 L 21.101562 -13.5625 L 48.96875 -14.652344 Z M 24.507812 -24.652344 L 33.484375 -53.757812 L 44.707031 -25.445312 Z M 24.507812 -24.652344 "/></g></g></g><g fill="#ffffff" fill-opacity="1"><g transform="translate(782.141578, 743.054747)"><g><path d="M 16.253906 -15.933594 L 3.421875 -65.199219 L -10.433594 -61.589844 L 5.253906 -1.367188 L 47.273438 -12.3125 L 44.417969 -23.269531 Z M 16.253906 -15.933594 "/></g></g></g><g fill="#ffffff" fill-opacity="1"><g transform="translate(845.079111, 726.342708)"><g><path d="M 30.851562 -14.082031 C 42.585938 -20.117188 45.5 -28.5625 44.367188 -36.292969 L 49.847656 -25.640625 L 60.664062 -31.207031 L 45.511719 -60.664062 L 13.722656 -44.3125 L 17.960938 -36.074219 L 37.683594 -46.21875 C 40.238281 -38.800781 39.445312 -31.132812 28.460938 -25.480469 C 17.308594 -19.742188 9.183594 -23.878906 2.765625 -36.359375 C -4 -49.507812 -1.714844 -58.367188 9.351562 -64.058594 C 18.589844 -68.8125 25.09375 -67.210938 29.097656 -61.273438 L 41.914062 -67.863281 C 34.878906 -79.085938 22.816406 -83.507812 4.339844 -74.003906 C -16.546875 -63.261719 -18.816406 -45.78125 -10.511719 -29.636719 C -2.25 -13.578125 12.628906 -4.707031 30.851562 -14.082031 Z M 30.851562 -14.082031 "/></g></g></g><g fill="#ffffff" fill-opacity="1"><g transform="translate(922.08474, 683.426538)"><g><path d="M 0.347656 -66.5 L -6.816406 -75.148438 L -35.503906 -51.398438 L -28.34375 -42.746094 L -19.476562 -50.085938 L 5.828125 -19.523438 L -3.039062 -12.183594 L 4.179688 -3.460938 L 32.871094 -27.210938 L 25.648438 -35.933594 L 16.78125 -28.59375 L -8.519531 -59.15625 Z M 0.347656 -66.5 "/></g></g></g><g fill="#ffffff" fill-opacity="1"><g transform="translate(969.924755, 643.443582)"><g><path d="M 33.425781 -42.40625 L 42.289062 -53.652344 L -20.140625 -74.976562 L -33.582031 -57.925781 L 1.738281 -2.203125 L 10.601562 -13.449219 L 3.386719 -24.855469 L 20.648438 -46.757812 Z M -2.835938 -34.648438 L -19.144531 -60.367188 L 9.675781 -50.523438 Z M -2.835938 -34.648438 "/></g></g></g></svg>